<svg width="86" height="79" viewBox="0 0 86 79" fill="none" xmlns="http://www.w3.org/2000/svg">
<path d="M64.0141 48C72.208 48 78.9666 41.4859 78.9999 33.3748C79.0159 29.5357 77.542 26.0383 75.1184 23.4153C73.0624 21.1901 70.3214 19.5932 67.2267 18.9501C65.5244 18.5968 64.1523 17.3744 63.5488 15.7594C62.3333 12.5113 60.2687 9.67076 57.621 7.50292C54.2176 4.71646 49.8408 3.33278 45.0867 3.04203C36.7738 2.53376 31.8836 6.69648 28.4051 12.1909C27.3375 13.877 25.4144 14.867 23.4077 14.7471C23.2169 14.7354 23.025 14.7344 22.831 14.7312C16.1013 14.6176 12.7933 18.2816 12.3849 25.0706C12.3838 25.0897 12.3849 25.1077 12.3849 25.1268C12.3902 25.911 11.8607 26.5901 11.0953 26.7917C6.43666 28.0151 3 32.2118 3 37.2096C3 39.9335 4.01942 42.4218 5.70023 44.3201C7.69834 46.576 10.6312 48 13.8995 48H64.0141Z" stroke="url(#paint0_radial_149_92)" stroke-width="6" stroke-miterlimit="10"/>
<path d="M13.408 70V63.376C13.408 62.464 13.216 61.8 12.832 61.384C12.464 60.952 11.896 60.736 11.128 60.736C10.232 60.736 9.528 61.04 9.016 61.648C8.52 62.256 8.272 63.104 8.272 64.192V70H5.68V58.72H8.176V60.304C8.512 59.744 8.984 59.304 9.592 58.984C10.216 58.648 10.976 58.48 11.872 58.48C13.168 58.48 14.176 58.848 14.896 59.584C15.632 60.32 16 61.464 16 63.016V70H13.408ZM18.5275 70V58.72H21.1195V70H18.5275ZM19.8235 56.584C19.3595 56.584 18.9835 56.448 18.6955 56.176C18.4235 55.904 18.2875 55.552 18.2875 55.12C18.2875 54.688 18.4235 54.344 18.6955 54.088C18.9835 53.816 19.3595 53.68 19.8235 53.68C20.2875 53.68 20.6555 53.816 20.9275 54.088C21.2155 54.344 21.3595 54.688 21.3595 55.12C21.3595 55.552 21.2155 55.904 20.9275 56.176C20.6555 56.448 20.2875 56.584 19.8235 56.584ZM38.0406 70V63.376C38.0406 62.464 37.8566 61.8 37.4886 61.384C37.1366 60.952 36.6166 60.736 35.9286 60.736C35.1126 60.736 34.4886 61.04 34.0566 61.648C33.6406 62.256 33.4326 63.104 33.4326 64.192V70H30.8166V63.376C30.8166 62.464 30.6406 61.8 30.2886 61.384C29.9366 60.952 29.4166 60.736 28.7286 60.736C27.9126 60.736 27.2886 61.04 26.8566 61.648C26.4406 62.256 26.2326 63.104 26.2326 64.192V70H23.6406V58.72H26.1366V60.136C26.4566 59.608 26.8966 59.2 27.4566 58.912C28.0166 58.624 28.6886 58.48 29.4726 58.48C30.2566 58.48 30.9286 58.648 31.4886 58.984C32.0486 59.304 32.4806 59.752 32.7846 60.328C33.1366 59.72 33.6326 59.264 34.2726 58.96C34.9126 58.64 35.6566 58.48 36.5046 58.48C37.8006 58.48 38.8086 58.848 39.5286 59.584C40.2646 60.32 40.6326 61.464 40.6326 63.016V70H38.0406ZM49.5044 70.24C48.5924 70.24 47.8084 70.064 47.1524 69.712C46.4964 69.36 45.9924 68.896 45.6404 68.32V70H43.1444V53.968H45.7364V60.232C46.1044 59.704 46.6084 59.28 47.2484 58.96C47.8884 58.64 48.6404 58.48 49.5044 58.48C50.2724 58.48 50.9844 58.616 51.6404 58.888C52.2964 59.16 52.8644 59.552 53.3444 60.064C53.8404 60.56 54.2244 61.176 54.4964 61.912C54.7684 62.632 54.9044 63.448 54.9044 64.36C54.9044 65.272 54.7684 66.096 54.4964 66.832C54.2244 67.552 53.8404 68.168 53.3444 68.68C52.8644 69.176 52.2964 69.56 51.6404 69.832C50.9844 70.104 50.2724 70.24 49.5044 70.24ZM48.9284 67.984C49.9044 67.984 50.6964 67.664 51.3044 67.024C51.9284 66.368 52.2404 65.48 52.2404 64.36C52.2404 63.24 51.9284 62.36 51.3044 61.72C50.6964 61.064 49.9044 60.736 48.9284 60.736C47.9684 60.736 47.1764 61.064 46.5524 61.72C45.9444 62.36 45.6404 63.24 45.6404 64.36C45.6404 65.48 45.9444 66.368 46.5524 67.024C47.1764 67.664 47.9684 67.984 48.9284 67.984ZM60.9636 70.24C59.6676 70.24 58.6516 69.872 57.9156 69.136C57.1956 68.4 56.8356 67.256 56.8356 65.704V58.72H59.4276V65.344C59.4276 66.256 59.6116 66.928 59.9796 67.36C60.3636 67.776 60.9396 67.984 61.7076 67.984C62.6036 67.984 63.2996 67.68 63.7956 67.072C64.3076 66.464 64.5636 65.616 64.5636 64.528V58.72H67.1556V70H64.6596V68.416C64.3236 68.976 63.8436 69.424 63.2196 69.76C62.6116 70.08 61.8596 70.24 60.9636 70.24ZM73.7631 70.24C72.8991 70.24 72.0831 70.112 71.3151 69.856C70.5471 69.6 69.8031 69.224 69.0831 68.728L70.0911 66.76C71.4991 67.688 72.7391 68.152 73.8111 68.152C75.2991 68.152 76.0431 67.712 76.0431 66.832C76.0431 66.464 75.9231 66.192 75.6831 66.016C75.4591 65.824 75.0511 65.68 74.4591 65.584L72.6831 65.248C70.5231 64.848 69.4431 63.824 69.4431 62.176C69.4431 61.68 69.5311 61.208 69.7071 60.76C69.8991 60.312 70.1791 59.92 70.5471 59.584C70.9311 59.248 71.4111 58.984 71.9871 58.792C72.5631 58.584 73.2351 58.48 74.0031 58.48C74.8191 58.48 75.5951 58.6 76.3311 58.84C77.0671 59.064 77.7311 59.384 78.3231 59.8L77.3631 61.696C76.8511 61.376 76.3151 61.112 75.7551 60.904C75.2111 60.68 74.6591 60.568 74.0991 60.568C73.4751 60.568 72.9791 60.672 72.6111 60.88C72.2591 61.088 72.0831 61.416 72.0831 61.864C72.0831 62.152 72.1951 62.384 72.4191 62.56C72.6431 62.72 73.0191 62.848 73.5471 62.944L75.3231 63.28C76.4111 63.488 77.2431 63.848 77.8191 64.36C78.3951 64.872 78.6831 65.6 78.6831 66.544C78.6831 67.616 78.2671 68.504 77.4351 69.208C76.6031 69.896 75.3791 70.24 73.7631 70.24ZM82.0967 70.168C81.6327 70.168 81.2567 70.032 80.9687 69.76C80.6967 69.472 80.5607 69.12 80.5607 68.704C80.5607 68.288 80.6967 67.944 80.9687 67.672C81.2567 67.384 81.6327 67.24 82.0967 67.24C82.5607 67.24 82.9367 67.384 83.2247 67.672C83.5127 67.944 83.6567 68.288 83.6567 68.704C83.6567 69.12 83.5127 69.472 83.2247 69.76C82.9367 70.032 82.5607 70.168 82.0967 70.168Z" fill="url(#paint1_linear_149_92)"/>
<defs>
<radialGradient id="paint0_radial_149_92" cx="0" cy="0" r="1" gradientUnits="userSpaceOnUse" gradientTransform="translate(41.0003 19.7458) scale(35.0655 29.1571)">
<stop stop-color="#7E4FFF"/>
<stop offset="0.5223" stop-color="#7E4FFF"/>
<stop offset="1" stop-color="#381A8C"/>
</radialGradient>
<linearGradient id="paint1_linear_149_92" x1="42.4639" y1="51.9231" x2="45.0047" y2="78.9996" gradientUnits="userSpaceOnUse">
<stop stop-color="#381A8C"/>
<stop offset="1" stop-color="#7E4FFF"/>
</linearGradient>
</defs>
</svg>
